HIERARCHY
ROOT hip
{
	OFFSET 0.000000 0.000000 0.000000 
	CHANNELS 6 Xposition Yposition Zposition Xrotation Zrotation Yrotation
	JOINT abdomen
	{
		OFFSET 0.000000 3.402643 0.000000 
		CHANNELS 3 Xrotation Zrotation Yrotation
		JOINT chest
		{
			OFFSET 0.000000 8.438565 -0.680529 
			CHANNELS 3 Xrotation Zrotation Yrotation
			JOINT neck
			{
				OFFSET 0.000000 10.207942 -0.272212 
				CHANNELS 3 Xrotation Zrotation Yrotation
				JOINT head
				{
					OFFSET 0.000000 3.130431 0.000000 
					CHANNELS 3 Xrotation Zrotation Yrotation
					End Site
					{
						OFFSET 0.000000 3.130435 0.000000 
					}
				}
			}
			JOINT lCollar
			{
				OFFSET 3.470700 6.669187 -0.816635 
				CHANNELS 3 Yrotation Zrotation Xrotation
				JOINT lShldr
				{
					OFFSET 3.198488 0.000000 0.000000 
					CHANNELS 3 Zrotation Yrotation Xrotation
					JOINT lForeArm
					{
						OFFSET 10.139888 0.000000 0.000000 
						CHANNELS 3 Yrotation Zrotation Xrotation
						JOINT lHand
						{
							OFFSET 8.370511 0.000000 0.000000 
							CHANNELS 3 Zrotation Yrotation Xrotation
							End Site
							{
								OFFSET 4.083176 0.000000 0.000000 
							}
						}
					}
				}
			}
			JOINT rCollar
			{
				OFFSET -3.470700 6.669187 -0.816635 
				CHANNELS 3 Yrotation Zrotation Xrotation
				JOINT rShldr
				{
					OFFSET -3.198488 0.000000 0.000000 
					CHANNELS 3 Zrotation Yrotation Xrotation
					JOINT rForeArm
					{
						OFFSET -10.139888 0.000000 0.000000 
						CHANNELS 3 Yrotation Zrotation Xrotation
						JOINT rHand
						{
							OFFSET -8.370511 0.000000 0.000000 
							CHANNELS 3 Zrotation Yrotation Xrotation
							End Site
							{
								OFFSET -4.083176 0.000000 0.000000 
							}
						}
					}
				}
			}
		}
	}
	JOINT lThigh
	{
		OFFSET 5.308129 -1.633274 1.361059 
		CHANNELS 3 Xrotation Zrotation Yrotation
		JOINT lShin
		{
			OFFSET -2.041588 -20.007561 0.000000 
			CHANNELS 3 Xrotation Zrotation Yrotation
			JOINT lFoot
			{
				OFFSET 0.000000 -19.190928 -1.224953 
				CHANNELS 3 Xrotation Yrotation Zrotation
				End Site
				{
					OFFSET 0.000000 -2.449906 4.627600 
				}
			}
		}
	}
	JOINT rThigh
	{
		OFFSET -5.308129 -1.633274 1.361059 
		CHANNELS 3 Xrotation Zrotation Yrotation
		JOINT rShin
		{
			OFFSET 2.041588 -20.007561 0.000000 
			CHANNELS 3 Xrotation Zrotation Yrotation
			JOINT rFoot
			{
				OFFSET 0.000000 -19.190928 -1.224953 
				CHANNELS 3 Xrotation Yrotation Zrotation
				End Site
				{
					OFFSET 0.000000 -2.449906 4.627600 
				}
			}
		}
	}
}
MOTION
Frames: 11
Frame Time: 0.033333
0.711363 45.691448 16.591488 -174.973541 -3.387347 -1.604534 0.000000 0.000000 0.000000 8.379784 3.073296 6.904986 -64.020393 -0.595695 -0.293054 -10.323007 0.820062 -1.416150 35.900738 29.998611 -4.998895 -7.829594 -0.210293 -34.115574 -43.625168 42.852650 -112.227608 98.662262 4.345771 -9.009130 -36.554939 -30.000000 -1.637637 -18.505507 -6.348554 41.543953 -27.474609 -16.261942 -165.781631 -80.845932 -55.875126 -10.505435 -2.881603 12.614037 21.485142 98.895599 8.300156 -1.370825 29.769278 -9.412034 -5.992545 -14.728833 5.386645 3.218946 5.015996 1.649586 -0.049737 31.306780 2.752358 47.277603 
0.659822 45.633541 16.736313 -174.403992 -3.563363 -1.419347 0.000000 0.000000 0.000000 7.981430 3.228078 6.954834 -64.087112 -0.859362 -0.312611 -9.400451 0.742022 -1.210962 35.060360 29.987236 -4.227257 -8.128251 0.673711 -34.160225 -44.785576 43.173775 -112.756531 99.584435 3.437834 -9.254926 -36.637058 -30.000000 -1.643208 -18.549623 -5.859113 41.440353 -28.221210 -15.559859 -165.252960 -80.337334 -55.940197 -10.828850 -9.726133 13.670186 21.485785 107.891045 9.302862 -1.056074 31.128122 -11.807936 -8.493120 -14.464756 5.270094 3.171264 4.880809 1.824782 -0.013538 30.612185 3.306675 47.426712 
0.602107 45.595165 16.877098 -174.227310 -3.778465 -1.204352 0.000000 0.000000 0.000000 8.027841 3.353888 6.985222 -64.027260 -1.025374 -0.332153 -8.547793 0.712779 -1.015668 34.354839 29.994020 -3.672563 -8.482126 1.672061 -34.230408 -45.940102 43.209076 -113.648544 100.792267 2.295864 -9.604552 -36.584763 -30.000000 -1.562730 -18.273657 -5.495012 41.348175 -29.056080 -15.087753 -164.693726 -79.483673 -56.033020 -11.462863 -17.086901 14.662468 21.103117 116.453278 10.064095 -0.715868 29.303495 -12.329660 -7.827638 -13.611445 5.117027 3.098784 6.064873 2.134386 0.129831 30.651564 4.273571 45.345901 
0.579138 45.396145 16.864147 -176.116287 -3.984212 -0.519041 0.000000 0.000000 0.000000 10.108047 3.393224 6.907239 -64.514320 -1.201150 -0.341927 -6.988609 0.615203 -0.576139 33.564667 29.994249 -2.996712 -8.171568 2.860682 -34.395027 -47.044498 43.132015 -115.419189 102.293404 0.914459 -10.187862 -36.365051 -29.999640 -0.863636 -18.671553 -5.037048 41.243992 -30.538916 -14.257074 -164.963882 -79.002007 -56.029991 -11.205343 -22.621243 15.031064 20.510113 123.378418 10.970170 -0.316467 24.926414 -10.183496 -4.281333 -9.577280 4.910503 2.890164 7.002207 2.056596 0.189455 31.645185 7.062785 43.215019 
0.436619 45.419312 17.008430 -175.363815 -4.726557 -0.088396 0.000000 0.000000 0.000000 9.438256 3.973495 7.078001 -64.412598 -1.689416 -0.381270 -5.329036 0.810519 -0.478468 32.470413 29.999014 -2.224941 -8.358605 3.465883 -34.439415 -45.949680 42.982883 -115.086639 101.062225 2.335572 -11.188146 -36.659344 -29.996996 -1.152978 -18.233047 -5.389913 41.324844 -30.098244 -14.999289 -164.923080 -81.272858 -55.752419 -9.547528 -32.791065 16.326174 19.249424 129.135101 11.595098 0.049361 21.309999 -6.270673 -5.248732 -8.122921 5.828112 3.117596 7.048386 1.181383 -0.021874 31.678637 10.425960 39.915878 
0.413704 45.367058 17.116888 -175.027390 -4.912078 0.205161 0.000000 0.000000 0.000000 9.230218 4.089529 7.108610 -64.527771 -1.894485 -0.400817 -4.231385 1.122976 -0.644599 31.785437 29.989267 -1.712952 -8.325231 3.194925 -34.406635 -44.562744 43.708408 -115.325050 100.772903 2.626782 -11.252536 -36.629253 -29.999393 -0.979505 -18.412437 -5.446581 41.333271 -30.233473 -14.816352 -165.533020 -82.642082 -55.520912 -8.107300 -41.701679 16.458986 17.459270 130.126251 11.557409 0.066855 21.580130 -4.562109 -9.325521 -6.717912 5.889053 3.087539 7.973593 0.496305 -0.100120 31.838190 13.590691 36.733978 
0.453832 45.237545 17.182457 -175.218811 -4.794897 -0.186530 0.000000 0.000000 0.000000 9.621275 4.031641 7.078689 -64.765457 -1.533171 -0.371484 -3.490384 1.503721 -0.898641 31.695660 29.994724 -1.481372 -7.880073 2.513586 -34.379719 -42.972046 44.607380 -115.388954 100.737541 2.541039 -10.652593 -35.948662 -30.000000 -0.255336 -18.737677 -5.469636 41.350628 -30.905613 -14.187332 -166.146851 -83.219124 -55.387951 -7.493120 -48.550220 16.324961 15.833780 127.176605 11.234668 -0.100412 21.217400 -4.152983 -11.729641 -5.484989 5.952931 3.075808 10.434967 -0.753650 -0.184287 32.088280 16.294069 33.511410 
0.531593 45.027946 17.224556 -175.794373 -4.452128 -1.214864 0.000000 0.000000 0.000000 10.468972 3.828851 6.988969 -65.142647 -0.703115 -0.312596 -2.816912 1.874496 -1.328692 31.994726 29.991068 -1.323118 -6.801057 1.772478 -34.401306 -40.774628 45.205776 -114.647812 99.875168 3.219214 -9.799212 -34.690037 -30.000000 0.941676 -19.015928 -5.671974 41.395145 -32.031807 -13.512156 -166.766968 -83.595192 -55.307869 -7.319611 -53.101730 16.023241 14.607924 121.406311 10.776510 -0.417388 19.148375 -3.582124 -12.503178 -5.250062 6.020106 3.086577 15.389365 -2.539252 -0.186235 31.970959 18.350325 30.585682 
0.635648 44.762470 17.286076 -176.313919 -3.882985 -2.515904 0.000000 0.000000 0.000000 11.331111 3.432285 6.868254 -65.655670 0.322263 -0.244137 -2.005474 2.117568 -2.208410 32.333153 29.993584 -0.967829 -5.116481 1.181987 -34.498844 -37.478325 45.290283 -113.073082 97.547287 5.366389 -9.219798 -33.248604 -30.000000 2.302097 -19.238388 -6.129008 41.512558 -33.387348 -13.130793 -167.612030 -84.337311 -55.179707 -6.933842 -55.503944 15.359348 13.786304 113.693016 10.201060 -0.749755 16.779938 -2.409615 -13.394078 -6.663123 5.774606 3.044752 22.542103 -4.319971 0.056661 31.520557 19.566559 28.698891 
0.750423 44.517097 17.425554 -176.152634 -3.137862 -3.736094 0.000000 0.000000 0.000000 11.551702 2.890154 6.727398 -66.204987 1.318354 -0.165972 -1.097127 2.241723 -3.576828 32.582645 29.991135 -0.498028 -3.324944 0.816000 -34.605690 -33.747864 45.053261 -111.392906 94.720070 8.078241 -9.417017 -31.972378 -30.000000 3.486655 -19.314867 -6.770886 41.657986 -34.676010 -13.070282 -168.713196 -85.402863 -55.007790 -6.175682 -56.439438 14.254621 13.197476 104.493805 9.527886 -1.050339 15.715458 -1.477853 -15.125013 -10.015450 5.202733 2.986967 30.565653 -5.737237 0.439464 31.348078 20.089235 29.253645 
0.820045 44.372707 17.603302 -175.840652 -2.840317 -5.094206 0.000000 0.000000 0.000000 11.741618 2.773939 6.697648 -66.557091 2.324214 -0.107334 -0.528663 2.453074 -4.584232 33.134075 29.996559 -0.388344 -2.915192 0.563414 -34.623074 -33.379524 45.829525 -110.878632 95.221214 7.583733 -9.251892 -30.842564 -30.000000 4.243433 -18.929176 -7.364883 41.776970 -35.545300 -13.071447 -169.633301 -86.198112 -54.897804 -5.775609 -55.171776 13.620990 13.321802 94.373756 9.227717 -1.181322 14.867725 -2.301455 -16.170063 -15.013662 4.529475 2.992885 39.326431 -5.573705 1.331135 30.297445 18.273767 31.836218 
